<svg data-logo="logo" xmlns="http://www.w3.org/2000/svg" viewBox="0 0 124 42">
        <g style="opacity: 1;" id="logogram" transform="translate(0, 1) rotate(0)"><path d="M21.3474 0.349945L46.7544 25.7266V39.3499H34.8978V30.624L16.4444 12.1924H12.611V39.3499H0.754395V0.349945H21.3474ZM34.8978 13.8842V0.349945H46.7544V13.8842H34.8978Z" fill="#9810FA"></path></g>
        <g style="opacity: 1;" id="logotype" transform="translate(53, 9)"><path fill="#884fb0" d="M7.21 5.09L7.21 5.09Q7.21 4.12 7.84 3.53Q8.46 2.94 9.42 2.94L9.42 2.94Q9.91 2.94 10.42 2.95Q10.92 2.95 11.42 2.95L11.42 2.95Q12.92 2.95 13.91 2.73Q14.90 2.51 16.27 1.93L16.27 1.93Q16.89 1.65 17.53 1.45Q18.17 1.24 18.85 1.24L18.85 1.24Q19.81 1.24 20.30 1.77Q20.80 2.30 20.80 3.26L20.80 3.26L20.80 17.38Q20.80 18.13 21.36 18.43Q21.93 18.73 22.75 18.83Q23.57 18.93 24.40 19.09Q25.23 19.24 25.79 19.68Q26.35 20.11 26.35 21.10L26.35 21.10Q26.35 22.06 25.82 22.53Q25.29 23 24.35 23L24.35 23L9.08 23Q8.15 23 7.60 22.53Q7.04 22.06 7.04 21.10L7.04 21.10Q7.04 20.04 7.66 19.61Q8.27 19.17 9.17 19.04Q10.07 18.90 10.96 18.82Q11.86 18.74 12.48 18.45Q13.09 18.16 13.09 17.38L13.09 17.38L13.09 9.00Q13.09 8.06 12.73 7.63Q12.37 7.19 11.40 7.19L11.40 7.19Q11.04 7.19 10.68 7.22Q10.32 7.24 9.96 7.24L9.96 7.24Q8.80 7.24 8.01 6.84Q7.21 6.44 7.21 5.09ZM36.61 0.68L36.61 0.68Q38.92 0.68 40.62 1.56Q42.32 2.44 43.42 3.95Q44.52 5.47 45.06 7.40Q45.60 9.33 45.60 11.41L45.60 11.41Q45.60 13.62 45.11 15.79Q44.62 17.96 43.54 19.74Q42.45 21.53 40.68 22.61Q38.90 23.68 36.33 23.68L36.33 23.68Q33.74 23.68 31.94 22.77Q30.15 21.85 29.05 20.27Q27.96 18.68 27.46 16.60Q26.97 14.52 26.97 12.22L26.97 12.22Q26.97 9.98 27.54 7.91Q28.11 5.84 29.30 4.21Q30.49 2.58 32.31 1.63Q34.13 0.68 36.61 0.68ZM36.42 20.52L36.42 20.52Q36.86 20.52 37.14 19.84Q37.41 19.15 37.56 18.11Q37.72 17.07 37.78 15.96Q37.84 14.85 37.85 13.96Q37.86 13.07 37.86 12.75L37.86 12.75Q37.86 12.30 37.86 11.27Q37.86 10.23 37.80 8.98Q37.74 7.72 37.57 6.55Q37.41 5.38 37.10 4.62Q36.80 3.86 36.28 3.86L36.28 3.86Q35.75 3.86 35.46 4.46Q35.17 5.06 35.04 5.90Q34.90 6.75 34.86 7.53Q34.81 8.30 34.81 8.66L34.81 8.66Q34.80 9.57 34.78 10.48Q34.76 11.40 34.76 12.30L34.76 12.30Q34.76 12.88 34.78 13.98Q34.80 15.07 34.87 16.28Q34.95 17.48 35.11 18.49Q35.27 19.50 35.57 19.94L35.57 19.94Q35.74 20.18 35.92 20.35Q36.10 20.52 36.42 20.52ZM55.53 4.95L55.53 4.95Q56.23 4.95 56.59 5.44Q56.96 5.93 56.96 6.58L56.96 6.58L56.96 8.15Q58.31 6.90 59.94 5.93Q61.56 4.95 63.15 4.95L63.15 4.95Q64.81 4.95 65.90 5.77Q66.99 6.59 67.55 7.91Q68.10 9.23 68.10 10.75L68.10 10.75L68.10 17.86Q68.10 18.33 68.15 18.80Q68.19 19.26 68.51 19.67L68.51 19.67Q68.91 20.16 69.21 20.44Q69.51 20.71 69.51 21.44L69.51 21.44Q69.51 22.20 69.04 22.60Q68.58 23 67.85 23L67.85 23L60.70 23Q59.99 23 59.60 22.57Q59.22 22.15 59.22 21.44L59.22 21.44Q59.22 20.80 59.52 20.43Q59.82 20.06 60.11 19.66Q60.41 19.26 60.41 18.52L60.41 18.52L60.41 12.59Q60.41 11.79 60.10 11.02Q59.78 10.25 58.79 10.25L58.79 10.25Q58.19 10.25 57.77 10.48Q57.34 10.71 56.96 11.07L56.96 11.07L56.96 18.06Q56.96 18.52 57.00 18.99Q57.03 19.46 57.34 19.86L57.34 19.86Q57.70 20.28 57.94 20.55Q58.18 20.81 58.18 21.44L58.18 21.44Q58.18 22.15 57.79 22.57Q57.41 23 56.69 23L56.69 23L49.54 23Q48.81 23 48.35 22.60Q47.89 22.20 47.89 21.44L47.89 21.44Q47.89 20.88 48.10 20.56Q48.31 20.25 48.59 19.98Q48.86 19.70 49.07 19.31Q49.29 18.92 49.29 18.23L49.29 18.23L49.29 11.89Q49.29 11.12 49.05 10.73Q48.81 10.34 48.49 10.11Q48.16 9.88 47.92 9.60Q47.68 9.33 47.68 8.78L47.68 8.78Q47.68 8.11 48.13 7.73Q48.57 7.35 49.12 7.12L49.12 7.12L52.81 5.64Q53.46 5.36 54.13 5.16Q54.81 4.95 55.53 4.95Z"></path></g>
        
      </svg>